<svg xmlns="http://www.w3.org/2000/svg" viewBox="0 0 727.09 121.24"><defs><style>.cls-1{fill:#fff;}</style></defs><g id="logo" data-name="logo"><g id="white"><g id="OL"><path class="cls-1" d="M27,78.2a48.2,48.2,0,0,1-9.41,5.18q-6.79,2.94-8.07,2.94Q5.9,86.32,5.89,83a2.06,2.06,0,0,1,1-1.68Q30.24,65.57,39.11,42.81c.4-1,1.41-1.51,3-1.51,2.15,0,3.22.83,3.22,2.47q0,4.57-2.85,12.55a57.94,57.94,0,0,1-6.26,13,2.88,2.88,0,0,1,.12.9V118q0,3.26-4.67,3.26T27,117.86ZM89,28.9v7.53q0,3.2-4.62,3.19c-3.11,0-4.67-1.11-4.67-3.31V28.9h-29c-1.66,0-2.49-1-2.49-3.13,0-2.4,1-3.61,2.85-3.61H48.69l31,.12V15.36c0-2,1.54-3.07,4.61-3.07S89,13.36,89,15.48v6.8H118.1c1.62,0,2.43,1.11,2.43,3.31s-.93,3.31-2.79,3.31ZM69.89,112.09a57,57,0,0,1,22.83-4.46q12.33,0,20.53,3.31,6.91,2.9,6.92,6c0,1.89-.55,2.83-1.64,2.83a1.11,1.11,0,0,1-.55-.18q-5.7-3.19-21.74-3.19-6.73,0-14.75.66-8.26.66-14.51,1.75c-.77.12-1.34.22-1.7.3a3.85,3.85,0,0,1-.55.06c-3,0-4.43-1.79-4.43-5.36V44.13c0-2,1.54-3,4.61-3,3.32,0,5,1,5,3Z"/><path class="cls-1" d="M82,61.89c-8.2,9-3.46,21.88-3.46,21.88s13.28,3.57,21.48-5.4,12.46-27.72,12.46-27.72S90.15,52.93,82,61.89Z"/><path class="cls-1" d="M172.06,92.38q28-16.35,34.4-37.82h-71c-1.61,0-2.41-1.13-2.41-3.37,0-2.59.93-3.88,2.81-3.88h72.63q5.43,0,5.43,5.49,0,17.49-14.24,31.13-7.93,7.63-22,13.47l.7.66q2.06,1.86,3.77,3.47,4,3.72,7.6,7.34l1.05,1.06,1,1q5.09,5,5.08,6.84c0,1.65-1.13,2.47-3.37,2.47q-5.68,0-24.75-17-24.28-21.73-24.29-26.61c0-1.47,1-2.21,3.12-2.21q4.32,0,17.75,12.07c.54.5,1,.91,1.36,1.21.51.47,1.24,1.14,2.22,2S171,91.44,172.06,92.38Z"/><path class="cls-1" d="M263.26,47.06h16.8l1.46-.05h3.82l.91,0h12.57q6.39,0,6.39,6.29,0,32-16.55,48.73a54,54,0,0,1-21.57,13A76.06,76.06,0,0,1,243,119.23q-2.77,0-2.77-3.42c0-2.51,1.06-3.89,3.17-4.12q49.08-4.78,54.67-57.54H261.4a42.39,42.39,0,0,1-10.56,16.4,48.13,48.13,0,0,1-11.31,7.94q-5.64,2.92-7.2,2.92-3.27,0-3.27-3.77c0-1.14.88-2.28,2.62-3.42q18.15-12.12,26.4-36.87a2.7,2.7,0,0,1,2.82-1.91c2.38,0,3.57,1,3.57,2.92A47.81,47.81,0,0,1,263.26,47.06Z"/><path class="cls-1" d="M393.49,116.31H332.44q-5.79,0-5.79-6V52.54a6.28,6.28,0,0,1,6-6h61.25q5.6,0,5.59,5.88v58Q399.48,116.31,393.49,116.31Zm-2.86-60.5V54.45c0-.67-.42-1-1.26-1h-53a.68.68,0,0,0-.7.6v53.87c0,.83.45,1.25,1.35,1.25h51.81c1.17,0,1.76-.42,1.76-1.25Z"/><path class="cls-1" d="M476.81,55l-49.19.09V81.69q-.62,2.69-3.95,2.69c-2.32,0-3.7-.93-4.14-2.77L419.62,54a4.55,4.55,0,0,1,1.63-3.21,5.44,5.44,0,0,1,4-1.72l53.15-.26a5.87,5.87,0,0,1,4.22,2.6q1.18,1.84,1.19,10.2,0,52.84-50.77,52.84c-2.23,0-3.34-.9-3.34-2.68a2.86,2.86,0,0,1,2.81-3.22q17.68-1.8,28.64-9.81,15.62-11.39,15.62-39.33Z"/><path class="cls-1" d="M567.19,80.07h-68.5c-1.32,0-2-1.09-2-3.26s.78-3.34,2.34-3.34h68.41c1.29,0,1.93,1.16,1.93,3.47C569.39,79,568.66,80.07,567.19,80.07Z"/><path class="cls-1" d="M595.27,52.61a72.15,72.15,0,0,1,3.52,23q0,17.46-6.64,28a31.39,31.39,0,0,1-9,9.24c-2.26,1.52-3.8,2.29-4.62,2.29-1.85,0-2.77-1-2.77-3.08a3,3,0,0,1,1.14-2.42q7.3-6.16,11.13-18.92a72.87,72.87,0,0,0,3-21A69,69,0,0,0,589.24,54a3.19,3.19,0,0,1-.13-.84q0-2.8,3.26-2.81A2.69,2.69,0,0,1,595.27,52.61Zm29,51.78Q633.06,92,647.23,92q5.53,0,6.33,1.1a3.42,3.42,0,0,1,.66,2.11c0,1.65-1.21,2.7-3.65,3.17a44.8,44.8,0,0,0-21.78,10.69c-.44.38-.74.66-.92.84q-3.25,3.21-5.37,3.47a11.67,11.67,0,0,0-1.41.27,2,2,0,0,1-.57.09,4.27,4.27,0,0,1-2.72-1.19,4,4,0,0,1-1.59-3V49.36c0-1.64,1.32-2.47,4-2.47s4.05.83,4.05,2.47Z"/><path class="cls-1" d="M685.82,68h.09a166.55,166.55,0,0,1,23.89,7.7q15.8,6.38,15.79,10.34c0,1.29-1,1.93-3.12,1.93a32.3,32.3,0,0,1-7.22-1.62L710.94,85Q694,79.5,685.82,74.65v40.13q0,2.94-4.4,2.94c-2.46,0-3.7-.92-3.7-2.77V44q0-2.87,4-2.86T685.82,44Zm20.5-23.93q2,0,5.06,5.45,3.74,6.6,3.74,12.37,0,1.8-2.07,1.8c-.79,0-1.91-.91-3.34-2.73a23.34,23.34,0,0,1-5.41-14.74C704.3,44.8,705,44.08,706.32,44.08Zm12.06-1.41q2.19,0,5.58,6.56a24.64,24.64,0,0,1,3.13,11.21c0,1.24-.71,1.85-2.11,1.85-.8,0-1.9-.89-3.3-2.68a24,24,0,0,1-5.42-15C716.26,43.32,717,42.67,718.38,42.67Z"/><path class="cls-1" d="M24.22,16.58C37-5.53,4.28-5.53,17,16.58,4.28-5.53-12.07,22.79,13.45,22.79-12.07,22.79,4.28,51.11,17,29,4.28,51.11,37,51.11,24.22,29c12.76,22.1,29.11-6.22,3.59-6.22C53.33,22.79,37-5.53,24.22,16.58Z"/></g></g></g></svg>